PathFileType	4	(X/Y/Z)	 2.5Hzlow3min.trc
DataRate	CameraRate	NumFrames	NumMarkers	Units	OrigDataRate	OrigDataStartFrame	OrigNumFrames
200	200	10	35	m	200	376	1000
Frame#	Time	C7			LSH			RSH			MAN			RASI			LASI			HIPR			HIPL			RPSI			LPSI			COX			RTHI1			RTHI2			RTHI3			RTHI4			RSHA1			RSHA2			RSHA3			RSHA4			RHEEL			RMET5			RMET1			RTOE			LTHI1			LTHI2			LTHI3			LTHI4			LSHA1			LSHA2			LSHA3			LSHA4			LHEEL			LMET5			LMET1			LTOE			
		X1	Y1	Z1	X2	Y2	Z2	X3	Y3	Z3	X4	Y4	Z4	X5	Y5	Z5	X6	Y6	Z6	X7	Y7	Z7	X8	Y8	Z8	X9	Y9	Z9	X10	Y10	Z10	X11	Y11	Z11	X12	Y12	Z12	X13	Y13	Z13	X14	Y14	Z14	X15	Y15	Z15	X16	Y16	Z16	X17	Y17	Z17	X18	Y18	Z18	X19	Y19	Z19	X20	Y20	Z20	X21	Y21	Z21	X22	Y22	Z22	X23	Y23	Z23	X24	Y24	Z24	X25	Y25	Z25	X26	Y26	Z26	X27	Y27	Z27	X28	Y28	Z28	X29	Y29	Z29	X30	Y30	Z30	X31	Y31	Z31	X32	Y32	Z32	X33	Y33	Z33	X34	Y34	Z34	X35	Y35	Z35	
376	1.8800	-0.315918	1.353679	-0.544954	-0.253876	1.349282	-0.725208	-0.233951	1.314814	-0.380097	-0.183534	1.293248	-0.554025	-0.169113	0.912323	-0.442178	-0.186300	0.904344	-0.672693	-0.233875	0.956612	-0.409829	-0.241071	0.964238	-0.697080	-0.334382	0.941992	-0.496107	-0.339749	0.942212	-0.596957	-0.337001	0.953236	-0.544507	-0.239630	0.708251	-0.378941	-0.209882	0.656685	-0.378637	-0.152573	0.687595	-0.382948	-0.176761	0.743829	-0.384532	-0.241338	0.331672	-0.369334	-0.265485	0.296096	-0.374007	-0.212052	0.270835	-0.393449	-0.193511	0.306629	-0.391164	-0.397273	0.074433	-0.424546	-0.245835	0.028903	-0.370259	-0.217076	0.036303	-0.449776	-0.188350	0.028226	-0.442868	-0.274586	0.713232	-0.724073	-0.252474	0.655742	-0.725187	-0.190608	0.673799	-0.729452	-0.203527	0.732658	-0.729056	-0.318505	0.315704	-0.706591	-0.337201	0.279940	-0.701045	-0.279978	0.255577	-0.711745	-0.268144	0.297802	-0.716066	-0.443344	0.076023	-0.646844	-0.312962	0.029071	-0.724323	-0.261516	0.037326	-0.664101	-0.237453	0.028226	-0.667473	
377	1.8850	-0.315782	1.356534	-0.545110	-0.253651	1.352562	-0.725235	-0.234097	1.318048	-0.380176	-0.183452	1.296335	-0.554083	-0.168752	0.915307	-0.442505	-0.185936	0.907331	-0.672772	-0.233510	0.959465	-0.410148	-0.240069	0.967442	-0.696979	-0.333970	0.944865	-0.496272	-0.339356	0.945086	-0.597170	-0.336667	0.956066	-0.544699	-0.239197	0.711219	-0.378968	-0.209622	0.659580	-0.378750	-0.152225	0.690281	-0.383403	-0.176240	0.746578	-0.384981	-0.241954	0.334257	-0.368585	-0.265752	0.298340	-0.373725	-0.212276	0.273246	-0.393229	-0.193850	0.309113	-0.390979	-0.396535	0.076500	-0.423830	-0.245605	0.028991	-0.370268	-0.217001	0.036277	-0.449768	-0.188392	0.028212	-0.442938	-0.273765	0.716004	-0.724370	-0.251744	0.658490	-0.725231	-0.189828	0.676454	-0.728914	-0.202655	0.735327	-0.728710	-0.318906	0.318025	-0.706634	-0.337496	0.282133	-0.701119	-0.280125	0.257988	-0.711513	-0.268424	0.300253	-0.715781	-0.442784	0.078001	-0.647431	-0.312658	0.029309	-0.724163	-0.261389	0.037299	-0.664041	-0.237455	0.028219	-0.667425	
378	1.8900	-0.315687	1.359696	-0.545248	-0.253437	1.356178	-0.725228	-0.234290	1.321563	-0.380259	-0.183394	1.299720	-0.554132	-0.168331	0.918546	-0.442842	-0.185553	0.910603	-0.672861	-0.233133	0.962575	-0.410430	-0.239282	0.970837	-0.696810	-0.333498	0.947999	-0.496368	-0.338938	0.948227	-0.597301	-0.336289	0.959149	-0.544812	-0.238801	0.714472	-0.378924	-0.209411	0.662753	-0.378812	-0.151922	0.693220	-0.383816	-0.175741	0.749583	-0.385378	-0.242714	0.337039	-0.367821	-0.266143	0.300761	-0.373426	-0.212598	0.275881	-0.392906	-0.194319	0.311831	-0.390706	-0.395714	0.078704	-0.423097	-0.245351	0.029104	-0.370279	-0.216921	0.036251	-0.449744	-0.188444	0.028205	-0.443013	-0.272848	0.719067	-0.724746	-0.250927	0.661539	-0.725379	-0.188958	0.679413	-0.728395	-0.201693	0.738296	-0.728362	-0.319413	0.320546	-0.706682	-0.337873	0.284551	-0.701238	-0.280364	0.260650	-0.711409	-0.268818	0.302960	-0.715615	-0.442133	0.080176	-0.648088	-0.312324	0.029585	-0.724011	-0.261259	0.037272	-0.663991	-0.237462	0.028216	-0.667375	
379	1.8950	-0.315638	1.363124	-0.545371	-0.253233	1.360093	-0.725188	-0.234550	1.325330	-0.380355	-0.183353	1.303397	-0.554175	-0.167867	0.922019	-0.443185	-0.185150	0.914127	-0.672949	-0.232728	0.965953	-0.410673	-0.238711	0.974422	-0.696594	-0.332975	0.951367	-0.496412	-0.338497	0.951606	-0.597360	-0.335872	0.962456	-0.544861	-0.238434	0.717980	-0.378812	-0.209251	0.666160	-0.378793	-0.151670	0.696376	-0.384174	-0.175270	0.752812	-0.385717	-0.243491	0.339851	-0.367313	-0.266630	0.303309	-0.373156	-0.213010	0.278718	-0.392494	-0.194917	0.314776	-0.390337	-0.394812	0.081027	-0.422368	-0.245038	0.029269	-0.370317	-0.216835	0.036223	-0.449707	-0.188503	0.028206	-0.443087	-0.271876	0.722398	-0.725174	-0.250068	0.664864	-0.725621	-0.188048	0.682637	-0.727908	-0.200684	0.741532	-0.728030	-0.320002	0.323233	-0.706716	-0.338331	0.287171	-0.701405	-0.280694	0.263553	-0.711448	-0.269316	0.305896	-0.715575	-0.441391	0.082518	-0.648800	-0.311953	0.029903	-0.723871	-0.261128	0.037245	-0.663952	-0.237473	0.028214	-0.667328	
380	1.9000	-0.315601	1.366753	-0.545488	-0.253038	1.364263	-0.725111	-0.234864	1.329345	-0.380444	-0.183335	1.307323	-0.554215	-0.167375	0.925696	-0.443528	-0.184731	0.917858	-0.673034	-0.232259	0.969604	-0.410891	-0.238347	0.978204	-0.696359	-0.332407	0.954949	-0.496417	-0.338032	0.955196	-0.597365	-0.335417	0.965963	-0.544865	-0.238092	0.721705	-0.378618	-0.209139	0.669771	-0.378697	-0.151473	0.699733	-0.384510	-0.174832	0.756247	-0.385995	-0.244267	0.342681	-0.367075	-0.267198	0.305973	-0.372929	-0.213508	0.281738	-0.391987	-0.195626	0.317910	-0.389886	-0.393821	0.083441	-0.421651	-0.244663	0.029485	-0.370390	-0.216743	0.036187	-0.449655	-0.188563	0.028213	-0.443149	-0.270905	0.725971	-0.725643	-0.249215	0.668420	-0.725921	-0.187148	0.686085	-0.727469	-0.199680	0.744990	-0.727716	-0.320665	0.326078	-0.706779	-0.338848	0.289966	-0.701618	-0.281094	0.266640	-0.711629	-0.269898	0.309027	-0.715661	-0.440555	0.085004	-0.649541	-0.311542	0.030260	-0.723755	-0.260994	0.037219	-0.663922	-0.237489	0.028213	-0.667288	
381	1.9050	-0.315572	1.370544	-0.545598	-0.252853	1.368644	-0.724996	-0.235219	1.333577	-0.380537	-0.183338	1.311455	-0.554249	-0.166862	0.929544	-0.443866	-0.184297	0.921757	-0.673103	-0.231714	0.973532	-0.411097	-0.238151	0.982185	-0.696128	-0.331802	0.958715	-0.496399	-0.337541	0.958968	-0.597331	-0.334931	0.969646	-0.544834	-0.237785	0.725615	-0.378348	-0.209074	0.673544	-0.378526	-0.151325	0.703256	-0.384783	-0.174434	0.759855	-0.386209	-0.244999	0.345495	-0.367173	-0.267845	0.308743	-0.372731	-0.214075	0.284915	-0.391399	-0.196429	0.321212	-0.389343	-0.392755	0.085950	-0.420970	-0.244212	0.029749	-0.370503	-0.216644	0.036143	-0.449589	-0.188625	0.028226	-0.443199	-0.269979	0.729735	-0.726130	-0.248411	0.672166	-0.726263	-0.186299	0.689719	-0.727090	-0.198727	0.748626	-0.727434	-0.321387	0.329088	-0.706937	-0.339407	0.292905	-0.701887	-0.281543	0.269884	-0.711949	-0.270541	0.312318	-0.715877	-0.439626	0.087611	-0.650323	-0.311089	0.030640	-0.723671	-0.260854	0.037196	-0.663904	-0.237508	0.028217	-0.667255	
382	1.9100	-0.315549	1.374468	-0.545698	-0.252671	1.373207	-0.724834	-0.235609	1.337989	-0.380638	-0.183363	1.315764	-0.554277	-0.166348	0.933536	-0.444187	-0.183854	0.925778	-0.673155	-0.231092	0.977711	-0.411305	-0.238081	0.986349	-0.695915	-0.331169	0.962641	-0.496365	-0.337023	0.962883	-0.597277	-0.334414	0.973475	-0.544790	-0.237518	0.729657	-0.378018	-0.209052	0.677451	-0.378289	-0.151233	0.706892	-0.385042	-0.174081	0.763601	-0.386356	-0.245802	0.348435	-0.367273	-0.268550	0.311630	-0.372535	-0.214701	0.288218	-0.390723	-0.197298	0.324642	-0.388710	-0.391628	0.088545	-0.420341	-0.243693	0.030057	-0.370652	-0.216532	0.036110	-0.449529	-0.188682	0.028244	-0.443244	-0.269140	0.733662	-0.726613	-0.247693	0.676065	-0.726628	-0.185544	0.693504	-0.726793	-0.197858	0.752415	-0.727201	-0.322146	0.332197	-0.707155	-0.339987	0.295957	-0.702223	-0.282023	0.273253	-0.712398	-0.271224	0.315737	-0.716221	-0.438606	0.090318	-0.651145	-0.310591	0.031042	-0.723613	-0.260708	0.037175	-0.663899	-0.237528	0.028217	-0.667215	
383	1.9150	-0.315528	1.378490	-0.545794	-0.252486	1.377907	-0.724626	-0.236038	1.342531	-0.380754	-0.183405	1.320207	-0.554296	-0.165849	0.937642	-0.444482	-0.183411	0.929887	-0.673184	-0.230396	0.982107	-0.411529	-0.238091	0.990674	-0.695735	-0.330519	0.966689	-0.496332	-0.336480	0.966915	-0.597215	-0.333869	0.977423	-0.544739	-0.237293	0.733803	-0.377642	-0.209071	0.681453	-0.377958	-0.151190	0.710621	-0.385273	-0.173773	0.767451	-0.386445	-0.246625	0.351366	-0.367462	-0.269301	0.314611	-0.372323	-0.215361	0.291622	-0.389973	-0.198214	0.328175	-0.387993	-0.390461	0.091218	-0.419782	-0.243107	0.030407	-0.370834	-0.216415	0.036085	-0.449486	-0.188738	0.028270	-0.443282	-0.268418	0.737717	-0.727065	-0.247093	0.680081	-0.727004	-0.184910	0.697401	-0.726588	-0.197106	0.756320	-0.727015	-0.322908	0.335370	-0.707418	-0.340568	0.299093	-0.702629	-0.282507	0.276713	-0.712962	-0.271920	0.319252	-0.716677	-0.437497	0.093099	-0.651991	-0.310048	0.031462	-0.723591	-0.260550	0.037162	-0.663903	-0.237551	0.028217	-0.667181	
384	1.9200	-0.315503	1.382583	-0.545885	-0.252291	1.382698	-0.724372	-0.236441	1.347169	-0.380898	-0.183461	1.324751	-0.554309	-0.165369	0.941826	-0.444744	-0.182968	0.934040	-0.673190	-0.229629	0.986680	-0.411780	-0.238132	0.995139	-0.695579	-0.329853	0.970837	-0.496301	-0.335914	0.971028	-0.597160	-0.333303	0.981458	-0.544699	-0.237115	0.738020	-0.377217	-0.209130	0.685530	-0.377574	-0.151171	0.714423	-0.385415	-0.173511	0.771375	-0.386476	-0.247625	0.354490	-0.367331	-0.270090	0.317671	-0.372067	-0.216041	0.295106	-0.389147	-0.199160	0.331778	-0.387212	-0.389261	0.093970	-0.419292	-0.242515	0.030756	-0.371004	-0.216294	0.036065	-0.449460	-0.188795	0.028301	-0.443315	-0.267836	0.741862	-0.727474	-0.246630	0.684181	-0.727373	-0.184417	0.701379	-0.726483	-0.196496	0.760303	-0.726877	-0.323666	0.338636	-0.707813	-0.341124	0.302277	-0.703100	-0.282974	0.280218	-0.713630	-0.272607	0.322829	-0.717230	-0.436301	0.095937	-0.652870	-0.309470	0.031879	-0.723612	-0.260383	0.037156	-0.663915	-0.237573	0.028215	-0.667140	
385	1.9250	-0.315471	1.386718	-0.545974	-0.252082	1.387540	-0.724076	-0.236826	1.351892	-0.381059	-0.183533	1.329360	-0.554312	-0.164921	0.946051	-0.444970	-0.182527	0.938201	-0.673174	-0.228830	0.991388	-0.412055	-0.238168	0.999692	-0.695432	-0.329177	0.975045	-0.496277	-0.335325	0.975196	-0.597116	-0.332726	0.985559	-0.544667	-0.236995	0.742275	-0.376758	-0.209232	0.689646	-0.377143	-0.151193	0.718261	-0.385478	-0.173295	0.775332	-0.386448	-0.248777	0.357772	-0.366906	-0.270920	0.320792	-0.371725	-0.216713	0.298636	-0.388264	-0.200120	0.335428	-0.386381	-0.388029	0.096796	-0.418867	-0.241920	0.031102	-0.371155	-0.216163	0.036057	-0.449441	-0.188851	0.028339	-0.443347	-0.267403	0.746058	-0.727815	-0.246316	0.688337	-0.727731	-0.184074	0.705406	-0.726479	-0.196035	0.764338	-0.726799	-0.324385	0.341907	-0.708243	-0.341641	0.305483	-0.703638	-0.283409	0.283758	-0.714384	-0.273268	0.326438	-0.717866	-0.435019	0.098799	-0.653771	-0.308866	0.032291	-0.723672	-0.260207	0.037155	-0.663932	-0.237593	0.028206	-0.667088	
